# xmcd
#
# Track frame offsets: 
#        150
#        25772
#        41676
#        67533
#        86850
#        109949
#        125172
#        145543
#        172825
#        192669
#        218195
#        229318
#        248934
#        263601
#        286781
#        297754
#
# Disc length: 4279 seconds
#
# Revision: 0
# Processed by: cddbd v1.5PL3 Copyright (c) Steve Scherf et al.
# Submitted via: ExactAudioCopy v0.95a3
#
DISCID=e710b510
DTITLE=John Lee Hoocker - Simply the truth
DYEAR=1968
DGENRE=Blues
TTITLE0=I don't wanna go to Vietnam
TTITLE1=Mini Skirts
TTITLE2=Mean mean woman
TTITLE3=I wanna bugaloo
TTITLE4=Tantalizing with the blues(twist ain't nothin')
TTITLE5=But the old time shimmy
TTITLE6=One room country shack
TTITLE7=I'm just a drifter
TTITLE8=Shake it baby
TTITLE9=Country boy
TTITLE10=Bottle up and go
TTITLE11=You're wrong
TTITLE12=Sugar mama
TTITLE13=Decoration day
TTITLE14=Money
TTITLE15=It serves you right to suffer
EXTD=
EXTT0=
EXTT1=
EXTT2=
EXTT3=
EXTT4=
EXTT5=
EXTT6=
EXTT7=
EXTT8=
EXTT9=
EXTT10=
EXTT11=
EXTT12=
EXTT13=
EXTT14=
EXTT15=
PLAYORDER=
